<!-- Generated by IcoMoon.io -->
<svg version="1.1" xmlns="http://www.w3.org/2000/svg" width="32" height="32" viewBox="0 0 32 32">
<title>arrows</title>
<path fill="#979797" d="M31.219 8.779l-5.333-5.333c-0.481-0.485-1.148-0.785-1.885-0.785s-1.404 0.3-1.885 0.785l-5.334 5.333c-0.502 0.486-0.814 1.165-0.814 1.918 0 1.473 1.194 2.667 2.667 2.667 0.753 0 1.433-0.312 1.917-0.813l0.001-0.001 0.781-0.779v14.896c0 1.473 1.194 2.667 2.667 2.667s2.667-1.194 2.667-2.667v0-14.896l0.781 0.781c0.483 0.485 1.15 0.785 1.888 0.785 1.471 0 2.664-1.193 2.664-2.664 0-0.002 0-0.004 0-0.006v0c0-0.002 0-0.004 0-0.005 0-0.735-0.299-1.401-0.781-1.883l-0-0zM10.667 5.333c0-1.473-1.194-2.667-2.667-2.667s-2.667 1.194-2.667 2.667v0 14.896l-0.781-0.781c-0.483-0.482-1.149-0.781-1.885-0.781-1.473 0-2.667 1.194-2.667 2.667 0 0.737 0.299 1.404 0.782 1.887l5.333 5.333c0.482 0.484 1.149 0.784 1.885 0.784s1.404-0.3 1.885-0.784l5.333-5.333c0.483-0.483 0.782-1.15 0.782-1.887 0-1.473-1.194-2.667-2.667-2.667-0.736 0-1.403 0.298-1.885 0.781l-0.781 0.781z"></path>
<path fill="#d5d5d5" d="M31.219 8.779l-5.333-5.333c-0.481-0.485-1.148-0.785-1.885-0.785s-1.404 0.3-1.885 0.785l-5.334 5.333c-0.502 0.486-0.814 1.165-0.814 1.918 0 1.473 1.194 2.667 2.667 2.667 0.753 0 1.433-0.312 1.917-0.813l0.001-0.001 0.781-0.779v14.896c0 1.473 1.194 2.667 2.667 2.667s2.667-1.194 2.667-2.667v0-14.896l0.781 0.781c0.483 0.485 1.15 0.785 1.888 0.785 1.471 0 2.664-1.193 2.664-2.664 0-0.002 0-0.004 0-0.006v0c0-0.002 0-0.004 0-0.005 0-0.735-0.299-1.401-0.781-1.883l-0-0zM10.667 5.333c0-1.473-1.194-2.667-2.667-2.667s-2.667 1.194-2.667 2.667v0 14.896l-0.781-0.781c-0.483-0.482-1.149-0.781-1.885-0.781-1.473 0-2.667 1.194-2.667 2.667 0 0.737 0.299 1.404 0.782 1.887l5.333 5.333c0.482 0.484 1.149 0.784 1.885 0.784s1.404-0.3 1.885-0.784l5.333-5.333c0.483-0.483 0.782-1.15 0.782-1.887 0-1.473-1.194-2.667-2.667-2.667-0.736 0-1.403 0.298-1.885 0.781l-0.781 0.781z"></path>
</svg>
