<svg xmlns="http://www.w3.org/2000/svg" xmlns:xlink="http://www.w3.org/1999/xlink" width="8" height="8" viewBox="0 0 8 8"><defs><path id="x7sua" d="M507.28 1716.266a.893.893 0 0 1 1.264.005l2.45 2.452 2.466-2.47a.902.902 0 0 1 1.277-.004.905.905 0 0 1-.005 1.279l-2.466 2.469 2.424 2.427c.35.35.353.917.005 1.265a.894.894 0 0 1-1.265-.004l-2.424-2.427-2.48 2.482a.903.903 0 0 1-1.276.004.904.904 0 0 1 .004-1.278l2.48-2.482-2.45-2.452a.896.896 0 0 1-.005-1.266z"/></defs><g><g transform="translate(-507 -1716)"><use fill="#b6b6b6" xlink:href="#x7sua"/><use fill="#d5d5d5" xlink:href="#x7sua"/></g></g></svg>