<!-- Generated by IcoMoon.io -->
<svg version="1.1" xmlns="http://www.w3.org/2000/svg" width="32" height="32" viewBox="0 0 32 32">
<title>down_arrow</title>
<path fill="#fff" d="M19.2 21.072l0.938-0.938c0.579-0.579 1.379-0.937 2.262-0.937 1.768 0 3.201 1.433 3.201 3.201 0 0.884-0.359 1.685-0.938 2.264l-6.4 6.4c-0.578 0.581-1.378 0.941-2.262 0.941s-1.684-0.36-2.262-0.941l-6.4-6.4c-0.58-0.579-0.938-1.38-0.938-2.264 0-1.768 1.433-3.201 3.201-3.201 0.883 0 1.683 0.358 2.262 0.937l0.938 0.938v-17.872c0-1.767 1.433-3.2 3.2-3.2s3.2 1.433 3.2 3.2v0z"></path>
</svg>
