<!-- Generated by IcoMoon.io -->
<svg version="1.1" xmlns="http://www.w3.org/2000/svg" width="37" height="32" viewBox="0 0 37 32">
<title>heart</title>
<path fill="#d5d5d5" d="M36.571 18.286c0-1.262-1.023-2.286-2.286-2.286v0h-2.286v-2.286c0-1.262-1.023-2.286-2.286-2.286s-2.286 1.023-2.286 2.286v0 2.286h-2.286c-1.262 0-2.286 1.023-2.286 2.286s1.023 2.286 2.286 2.286v0h2.286v2.286c0 1.262 1.023 2.286 2.286 2.286s2.286-1.023 2.286-2.286v0-2.286h2.286c1.262 0 2.286-1.023 2.286-2.286v0zM29.714 6.857c1.662 0 3.166 0.615 4.352 1.6-0.389-2.145-1.4-4.008-2.837-5.445v0c-3.893-3.893-10.107-3.977-14.144-0.329-4.039-3.648-10.254-3.563-14.146 0.329-1.861 1.861-3.013 4.433-3.013 7.273s1.151 5.412 3.013 7.273l14.146 14.153 6.279-6.286c-0.078-0.192-0.119-0.402-0.183-0.603-1.382-0.422-2.541-1.228-3.388-2.295l-0.011-0.014-2.64 2.615-10.928-10.823c-1.024-1.025-1.657-2.441-1.657-4.004 0-0.007 0-0.015 0-0.022v0.001c0-1.527 0.594-2.96 1.671-4.041 1.018-1.022 2.426-1.655 3.982-1.655 0.005 0 0.009 0 0.014 0h-0.001c1.424 0 2.793 0.528 3.854 1.486l3.063 3.058 3.067-3.058c1.015-0.921 2.368-1.485 3.854-1.486h0c1.509 0 2.926 0.59 3.993 1.655 0.224 0.224 0.411 0.473 0.594 0.725 0.35-0.055 0.699-0.107 1.065-0.107z"></path>
</svg>
