<!-- Generated by IcoMoon.io -->
<svg version="1.1" xmlns="http://www.w3.org/2000/svg" width="32" height="32" viewBox="0 0 32 32">
<title>list-1</title>
<path fill="#d5d5d5" d="M6 0h20c3.314 0 6 2.686 6 6v0 20c0 3.314-2.686 6-6 6v0h-20c-3.314 0-6-2.686-6-6v0-20c0-3.314 2.686-6 6-6v0zM4 6v20c0 1.105 0.895 2 2 2v0h20c1.105 0 2-0.895 2-2v0-20c0-1.105-0.895-2-2-2v0h-20c-1.105 0-2 0.895-2 2v0zM8 8h4v4h-4zM8 14h4v4h-4zM8 20h4v4h-4zM14 8h4v4h-4zM14 14h4v4h-4zM14 20h4v4h-4zM20 8h4v4h-4zM20 14h4v4h-4zM20 20h4v4h-4z"></path>
</svg>
