<!-- Generated by IcoMoon.io -->
<svg version="1.1" xmlns="http://www.w3.org/2000/svg" width="32" height="32" viewBox="0 0 32 32">
<title>list-2</title>
<path d="M26 32h-20c-3.314 0-6-2.686-6-6v0-20c0-3.314 2.686-6 6-6v0h20c3.314 0 6 2.686 6 6v0 20c0 3.314-2.686 6-6 6v0zM28 6c0-1.105-0.895-2-2-2v0h-20c-1.105 0-2 0.895-2 2v0 20c0 1.105 0.895 2 2 2v0h20c1.105 0 2-0.895 2-2v0zM18 18h6v6h-6zM20 22h2v-2h-2zM18 8h6v6h-6zM20 12h2v-2h-2zM8 18h6v6h-6zM10 22h2v-2h-2zM8 8h6v6h-6zM10 12h2v-2h-2z"></path>
</svg>
