<!-- Generated by IcoMoon.io -->
<svg version="1.1" xmlns="http://www.w3.org/2000/svg" width="32" height="32" viewBox="0 0 32 32">
<title>menu_arrow</title>
<path fill="#1f4ba5" d="M0.901 11.291l0.011-0.005c-0.566-0.635-0.912-1.476-0.912-2.399 0-0 0-0.001 0-0.001v0c0-1.963 1.536-3.552 3.429-3.552 0.997 0 1.893 0.448 2.517 1.157l0.011-0.005 10.043 11.36 10.043-11.36 0.011 0.005c0.614-0.707 1.513-1.153 2.517-1.157h0.001c1.893 0 3.429 1.589 3.429 3.552 0 0.928-0.352 1.76-0.907 2.4v0.005l-12.565 14.224c-0.619 0.705-1.522 1.148-2.527 1.152h-0.001c-1.006-0.004-1.909-0.447-2.525-1.148l-0.003-0.004z"></path>
</svg>
