<svg xmlns="http://www.w3.org/2000/svg" xmlns:xlink="http://www.w3.org/1999/xlink" width="14" height="15" viewBox="0 0 14 15"><defs><path id="nvxya" d="M578 1707a1 1 0 0 1-1-1 4.972 4.972 0 0 0-1.587-3.637c-.895 1.007-2.09 1.636-3.414 1.636-1.323 0-2.518-.629-3.413-1.636a4.972 4.972 0 0 0-1.587 3.636 1 1 0 0 1-2 0c0-2.159.999-4.066 2.536-5.35a6.918 6.918 0 0 1-.536-2.65c0-3.313 2.239-6 5-6 2.762 0 5 2.687 5 6 0 .956-.203 1.848-.535 2.65 1.537 1.284 2.535 3.191 2.535 5.35a1 1 0 0 1-1 1zm-6-13c-1.657 0-3 1.79-3 3.999 0 2.21 1.343 4 3 4 1.656 0 3-1.79 3-4s-1.344-4-3-4z"/></defs><g><g opacity=".2" transform="translate(-565 -1692)"><use xlink:href="#nvxya"/></g></g></svg>