<!-- Generated by IcoMoon.io -->
<svg version="1.1" xmlns="http://www.w3.org/2000/svg" width="28" height="32" viewBox="0 0 28 32">
<title>sliders</title>
<path fill="#d5d5d5" d="M24 16c-2.209 0-4-1.791-4-4v0-2.002c0-2.209 1.791-4 4-4s4 1.791 4 4v0 2c0 2.209-1.791 4-4 4v0zM22 4.366v-2.368c0-1.105 0.895-2 2-2s2 0.895 2 2v0 2.368c-0.594-0.227-1.28-0.361-1.997-0.368l-0.003-0c-0.706 0-1.372 0.144-2 0.368zM14 25.998c-2.209 0-4-1.791-4-4v0-2c0-2.209 1.791-4 4-4s4 1.791 4 4v0 2c0 2.209-1.791 4-4 4v0zM12 14.366v-12.368c0-1.105 0.895-2 2-2s2 0.895 2 2v0 12.368c-0.594-0.226-1.28-0.361-1.997-0.368l-0.003-0c-0.706 0-1.372 0.144-2 0.368zM4 15.998c-2.209 0-4-1.791-4-4v0-2c0-2.209 1.791-4 4-4s4 1.791 4 4v0 2c0 2.209-1.791 4-4 4v0zM2 4.366v-2.368c0-1.105 0.895-2 2-2s2 0.895 2 2v0 2.368c-0.594-0.227-1.28-0.361-1.997-0.368l-0.003-0c-0.706 0-1.372 0.144-2 0.368zM6 17.63v12.37c0 1.105-0.895 2-2 2s-2-0.895-2-2v0-12.368c0.594 0.226 1.28 0.361 1.997 0.368l0.003 0c0.704 0 1.37-0.144 2-0.368zM16 27.63v2.37c0 1.105-0.895 2-2 2s-2-0.895-2-2v0-2.368c0.594 0.226 1.28 0.361 1.997 0.368l0.003 0c0.72-0.007 1.406-0.142 2.041-0.382l-0.041 0.014zM26 17.63v12.37c0 1.105-0.895 2-2 2s-2-0.895-2-2v0-12.368c0.628 0.224 1.294 0.368 2 0.368 0.704 0 1.37-0.144 2-0.368z"></path>
</svg>
