<!-- Generated by IcoMoon.io -->
<svg version="1.1" xmlns="http://www.w3.org/2000/svg" width="32" height="32" viewBox="0 0 32 32">
<title>user</title>
<path d="M28.8 31.998c-1.178 0-2.133-0.955-2.133-2.133v0c-0.003-3.061-1.303-5.819-3.379-7.753l-0.006-0.006c-1.909 2.15-4.459 3.492-7.283 3.492-2.822 0-5.374-1.342-7.281-3.492-2.083 1.941-3.382 4.699-3.383 7.761v0c0 1.178-0.955 2.133-2.133 2.133s-2.133-0.955-2.133-2.133v0c0-4.608 2.131-8.674 5.41-11.413-0.717-1.669-1.137-3.611-1.143-5.651v-0.002c0-7.070 4.777-12.8 10.667-12.8 5.892 0 10.667 5.73 10.667 12.8 0 2.039-0.433 3.942-1.141 5.653 3.279 2.739 5.408 6.805 5.408 11.413 0 1.178-0.955 2.133-2.133 2.133v0zM16 4.265c-3.535 0-6.4 3.819-6.4 8.533s2.865 8.533 6.4 8.533c3.533 0 6.4-3.819 6.4-8.533s-2.867-8.533-6.4-8.533z"></path>
</svg>
