<?xml version="1.0" encoding="utf-8"?><svg xmlns="http://www.w3.org/2000/svg" xmlns:xlink="http://www.w3.org/1999/xlink"><symbol viewBox="0 0 32 32" id="arrows" xmlns="http://www.w3.org/2000/svg"><path d="M31.219 8.779l-5.333-5.333c-.481-.485-1.148-.785-1.885-.785s-1.404.3-1.885.785l-5.334 5.333a2.667 2.667 0 1 0 3.77 3.772l.001-.001.781-.779v14.896a2.667 2.667 0 1 0 5.334 0V11.771l.781.781a2.664 2.664 0 0 0 4.552-1.879v-.011c0-.735-.299-1.401-.781-1.883zM10.667 5.333a2.667 2.667 0 1 0-5.334 0v14.896l-.781-.781a2.667 2.667 0 1 0-3.77 3.773l5.333 5.333c.482.484 1.149.784 1.885.784s1.404-.3 1.885-.784l5.333-5.333a2.667 2.667 0 1 0-3.77-3.773l-.781.781z"/><path d="M31.219 8.779l-5.333-5.333c-.481-.485-1.148-.785-1.885-.785s-1.404.3-1.885.785l-5.334 5.333a2.667 2.667 0 1 0 3.77 3.772l.001-.001.781-.779v14.896a2.667 2.667 0 1 0 5.334 0V11.771l.781.781a2.664 2.664 0 0 0 4.552-1.879v-.011c0-.735-.299-1.401-.781-1.883zM10.667 5.333a2.667 2.667 0 1 0-5.334 0v14.896l-.781-.781a2.667 2.667 0 1 0-3.77 3.773l5.333 5.333c.482.484 1.149.784 1.885.784s1.404-.3 1.885-.784l5.333-5.333a2.667 2.667 0 1 0-3.77-3.773l-.781.781z"/></symbol><symbol viewBox="0 0 8 8" id="close" xmlns="http://www.w3.org/2000/svg"><defs><path id="ba" d="M507.28 1716.266a.893.893 0 0 1 1.264.005l2.45 2.452 2.466-2.47a.902.902 0 0 1 1.277-.004.905.905 0 0 1-.005 1.279l-2.466 2.469 2.424 2.427c.35.35.353.917.005 1.265a.894.894 0 0 1-1.265-.004l-2.424-2.427-2.48 2.482a.903.903 0 0 1-1.276.004.904.904 0 0 1 .004-1.278l2.48-2.482-2.45-2.452a.896.896 0 0 1-.005-1.266z"/></defs><g transform="translate(-507 -1716)"><use xlink:href="#ba"/><use xlink:href="#ba"/></g></symbol><symbol viewBox="0 0 32 32" id="down_arrow" xmlns="http://www.w3.org/2000/svg"><path d="M19.2 21.072l.938-.938a3.2 3.2 0 0 1 4.525 4.528l-6.4 6.4c-.578.581-1.378.941-2.262.941s-1.684-.36-2.262-.941l-6.4-6.4a3.2 3.2 0 1 1 4.525-4.528l.938.938V3.2a3.2 3.2 0 0 1 6.4 0z"/></symbol><symbol viewBox="0 0 37 32" id="heart" xmlns="http://www.w3.org/2000/svg"><path d="M36.571 18.286A2.286 2.286 0 0 0 34.285 16h-2.286v-2.286a2.286 2.286 0 0 0-4.572 0V16h-2.286a2.286 2.286 0 0 0 0 4.572h2.286v2.286a2.286 2.286 0 0 0 4.572 0v-2.286h2.286a2.286 2.286 0 0 0 2.286-2.286zM29.714 6.857c1.662 0 3.166.615 4.352 1.6a10.233 10.233 0 0 0-2.837-5.445C27.336-.881 21.122-.965 17.085 2.683 13.046-.965 6.831-.88 2.939 3.012 1.078 4.873-.074 7.445-.074 10.285s1.151 5.412 3.013 7.273l14.146 14.153 6.279-6.286c-.078-.192-.119-.402-.183-.603a6.847 6.847 0 0 1-3.388-2.295l-.011-.014-2.64 2.615L6.214 14.305a5.648 5.648 0 0 1-1.657-4.004v-.022.001c0-1.527.594-2.96 1.671-4.041a5.603 5.603 0 0 1 3.982-1.655h.014-.001c1.424 0 2.793.528 3.854 1.486l3.063 3.058 3.067-3.058a5.724 5.724 0 0 1 3.854-1.486c1.509 0 2.926.59 3.993 1.655.224.224.411.473.594.725a6.79 6.79 0 0 1 1.065-.107z"/></symbol><symbol viewBox="0 0 32 32" id="list-1" xmlns="http://www.w3.org/2000/svg"><path d="M6 0h20a6 6 0 0 1 6 6v20a6 6 0 0 1-6 6H6a6 6 0 0 1-6-6V6a6 6 0 0 1 6-6zM4 6v20a2 2 0 0 0 2 2h20a2 2 0 0 0 2-2V6a2 2 0 0 0-2-2H6a2 2 0 0 0-2 2zm4 2h4v4H8zm0 6h4v4H8zm0 6h4v4H8zm6-12h4v4h-4zm0 6h4v4h-4zm0 6h4v4h-4zm6-12h4v4h-4zm0 6h4v4h-4zm0 6h4v4h-4z"/></symbol><symbol viewBox="0 0 32 32" id="list-2" xmlns="http://www.w3.org/2000/svg"><path d="M26 32H6a6 6 0 0 1-6-6V6a6 6 0 0 1 6-6h20a6 6 0 0 1 6 6v20a6 6 0 0 1-6 6zm2-26a2 2 0 0 0-2-2H6a2 2 0 0 0-2 2v20a2 2 0 0 0 2 2h20a2 2 0 0 0 2-2zM18 18h6v6h-6zm2 4h2v-2h-2zM18 8h6v6h-6zm2 4h2v-2h-2zM8 18h6v6H8zm2 4h2v-2h-2zM8 8h6v6H8zm2 4h2v-2h-2z"/></symbol><symbol viewBox="0 0 14 15" id="logout" xmlns="http://www.w3.org/2000/svg"><defs><path id="ga" d="M576.95 1864.949a7 7 0 1 1-9.9-9.9l.707-.707a1 1 0 1 1 1.414 1.415l-.707.707a5 5 0 1 0 7.071 0l-.707-.707a1 1 0 0 1 1.414-1.415l.707.708a7 7 0 0 1 0 9.899zm-4.95-6.95a1 1 0 0 1-1-1v-4a1 1 0 1 1 2 0v4a1 1 0 0 1-1 1z"/></defs><use xlink:href="#ga" transform="translate(-565 -1852)"/></symbol><symbol viewBox="0 0 32 32" id="menu_arrow" xmlns="http://www.w3.org/2000/svg"><path d="M.901 11.291l.011-.005A3.595 3.595 0 0 1 0 8.887v-.001c0-1.963 1.536-3.552 3.429-3.552.997 0 1.893.448 2.517 1.157l.011-.005L16 17.846l10.043-11.36.011.005a3.34 3.34 0 0 1 2.517-1.157h.001c1.893 0 3.429 1.589 3.429 3.552 0 .928-.352 1.76-.907 2.4v.005L18.529 25.515a3.37 3.37 0 0 1-2.527 1.152h-.001a3.37 3.37 0 0 1-2.525-1.148l-.003-.004z"/></symbol><symbol viewBox="0 0 32 32" id="minus" xmlns="http://www.w3.org/2000/svg"><path d="M16 0c8.837 0 16 7.163 16 16s-7.163 16-16 16S0 24.837 0 16 7.163 0 16 0zM4 16c0 6.627 5.373 12 12 12s12-5.373 12-12S22.627 4 16 4 4 9.373 4 16zm16-2a2 2 0 1 1 0 4h-8a2 2 0 1 1 0-4z"/></symbol><symbol viewBox="0 0 16 13" id="orders" xmlns="http://www.w3.org/2000/svg"><defs><path id="ja" d="M579 1779h-.246l-1.793 6.274-.016-.005a.987.987 0 0 1-.945.73h-8a.986.986 0 0 1-.946-.73l-.016.005-1.793-6.275H565a1 1 0 1 1 0-2h2.382l1.723-3.447.01.005a.992.992 0 0 1 1.885.442.977.977 0 0 1-.115.443l.01.004-1.277 2.553h4.764l-1.277-2.553.01-.004a.977.977 0 0 1-.115-.443.992.992 0 1 1 1.885-.442l.01-.005 1.723 3.447H579a1 1 0 0 1 0 2zm-10.246 5h6.491l1.429-5h-9.348z"/></defs><use xlink:href="#ja" transform="translate(-564 -1773)"/></symbol><symbol viewBox="0 0 12 16" id="pin" xmlns="http://www.w3.org/2000/svg"><defs><path id="ka" d="M656 48s-6-6.686-6-10a6 6 0 0 1 12 0c0 3.314-6 10-6 10zm.02-13.995c-2.205 0-4 1.794-4 4 0 1.275 1.88 4.252 4 6.903 2.12-2.651 4-5.628 4-6.903 0-2.206-1.793-4-4-4zM655 38a1 1 0 1 1 2 0 1 1 0 0 1-2 0z"/></defs><use xlink:href="#ka" transform="translate(-650 -32)"/></symbol><symbol viewBox="0 0 32 32" id="plus" xmlns="http://www.w3.org/2000/svg"><path d="M16 0c8.837 0 16 7.163 16 16s-7.163 16-16 16S0 24.837 0 16 7.163 0 16 0zM4 16c0 6.627 5.373 12 12 12s12-5.373 12-12S22.627 4 16 4 4 9.373 4 16zm16-2a2 2 0 1 1 0 4h-2v1.998a2 2 0 1 1-4 0v-2h-2a2 2 0 1 1 0-4h2v-2a2 2 0 1 1 4 0v2z"/></symbol><symbol viewBox="0 0 14 15" id="profile" xmlns="http://www.w3.org/2000/svg"><defs><path id="ma" d="M578 1707a1 1 0 0 1-1-1 4.972 4.972 0 0 0-1.587-3.637c-.895 1.007-2.09 1.636-3.414 1.636-1.323 0-2.518-.629-3.413-1.636a4.972 4.972 0 0 0-1.587 3.636 1 1 0 0 1-2 0c0-2.159.999-4.066 2.536-5.35a6.918 6.918 0 0 1-.536-2.65c0-3.313 2.239-6 5-6 2.762 0 5 2.687 5 6 0 .956-.203 1.848-.535 2.65 1.537 1.284 2.535 3.191 2.535 5.35a1 1 0 0 1-1 1zm-6-13c-1.657 0-3 1.79-3 3.999 0 2.21 1.343 4 3 4 1.656 0 3-1.79 3-4s-1.344-4-3-4z"/></defs><use xlink:href="#ma" transform="translate(-565 -1692)"/></symbol><symbol viewBox="0 0 16 16" id="search" xmlns="http://www.w3.org/2000/svg"><defs><path id="na" d="M589.717 47.717a1 1 0 0 1-1.414 0l-3.15-3.15c-2.74 2.05-6.629 1.856-9.12-.635a7 7 0 1 1 9.899-9.9c2.491 2.492 2.686 6.38.636 9.121l3.15 3.15a1 1 0 0 1 0 1.414zm-5.2-12.27a5 5 0 1 0-7.07 7.07 5 5 0 0 0 7.07-7.07z"/></defs><use xlink:href="#na" transform="translate(-574 -32)"/></symbol><symbol viewBox="0 0 14 16" id="settings" xmlns="http://www.w3.org/2000/svg"><defs><path id="oa" d="M578.025 1817.708l.004.006-.15.09a6.026 6.026 0 0 1 0 2.39l.15.09-.004.006c.582.35.975.981.975 1.71a2 2 0 0 1-2 2c-.377 0-.725-.111-1.026-.292l-.003.006-.174-.104a5.951 5.951 0 0 1-1.797 1.022v.367a2 2 0 1 1-4 0v-.367a5.95 5.95 0 0 1-1.797-1.022l-.174.104-.004-.006c-.3.18-.649.291-1.025.291a2 2 0 0 1-2-2c0-.728.393-1.359.975-1.709l-.004-.006.15-.09a6.025 6.025 0 0 1 0-2.39l-.15-.09.004-.006A1.992 1.992 0 0 1 565 1816a2 2 0 0 1 2-2c.376 0 .724.11 1.025.291l.004-.006.174.105a5.945 5.945 0 0 1 1.797-1.022V1813a2 2 0 0 1 4 0v.368a5.945 5.945 0 0 1 1.797 1.022l.174-.105.003.006c.301-.18.65-.29 1.026-.29a2 2 0 0 1 2 2c0 .727-.393 1.358-.975 1.708zM572 1815a4 4 0 1 0 0 8 4 4 0 0 0 0-8zm0 6a2 2 0 1 1-.001-4 2 2 0 0 1 0 4z"/></defs><use xlink:href="#oa" transform="translate(-565 -1811)"/></symbol><symbol viewBox="0 0 32 32" id="shop" xmlns="http://www.w3.org/2000/svg"><path d="M28 32H4a4 4 0 0 1-4-4l2-12c.52-2.08 1.79-4 4-4h2V8a8 8 0 0 1 16 0v4h2a4 4 0 0 1 4 4l2 12a4 4 0 0 1-4 4zm-1.976-16H24v2a2 2 0 1 1-4 0v-2h-8v2a2 2 0 1 1-4 0v-2H5.976L4.002 28h23.98zM20 8a4 4 0 0 0-8 0v4h8z"/></symbol><symbol viewBox="0 0 28 32" id="sliders" xmlns="http://www.w3.org/2000/svg"><path d="M24 16a4 4 0 0 1-4-4V9.998a4 4 0 0 1 8 0v2a4 4 0 0 1-4 4zM22 4.366V1.998a2 2 0 1 1 4 0v2.368a5.8 5.8 0 0 0-1.997-.368H24c-.706 0-1.372.144-2 .368zm-8 21.632a4 4 0 0 1-4-4v-2a4 4 0 0 1 8 0v2a4 4 0 0 1-4 4zm-2-11.632V1.998a2 2 0 1 1 4 0v12.368a5.823 5.823 0 0 0-1.997-.368H14c-.706 0-1.372.144-2 .368zm-8 1.632a4 4 0 0 1-4-4v-2a4 4 0 0 1 8 0v2a4 4 0 0 1-4 4zM2 4.366V1.998a2 2 0 1 1 4 0v2.368a5.8 5.8 0 0 0-1.997-.368H4c-.706 0-1.372.144-2 .368zM6 17.63V30a2 2 0 1 1-4 0V17.632c.594.226 1.28.361 1.997.368H4c.704 0 1.37-.144 2-.368zm10 10V30a2 2 0 1 1-4 0v-2.368c.594.226 1.28.361 1.997.368H14a5.919 5.919 0 0 0 2.041-.382l-.041.014zm10-10V30a2 2 0 1 1-4 0V17.632A5.923 5.923 0 0 0 24 18c.704 0 1.37-.144 2-.368z"/></symbol><symbol viewBox="0 0 32 32" id="user" xmlns="http://www.w3.org/2000/svg"><path d="M28.8 31.998a2.133 2.133 0 0 1-2.133-2.133 10.58 10.58 0 0 0-3.379-7.753l-.006-.006c-1.909 2.15-4.459 3.492-7.283 3.492-2.822 0-5.374-1.342-7.281-3.492a10.578 10.578 0 0 0-3.383 7.761 2.133 2.133 0 0 1-4.266 0c0-4.608 2.131-8.674 5.41-11.413-.717-1.669-1.137-3.611-1.143-5.651v-.002c0-7.07 4.777-12.8 10.667-12.8 5.892 0 10.667 5.73 10.667 12.8 0 2.039-.433 3.942-1.141 5.653 3.279 2.739 5.408 6.805 5.408 11.413A2.133 2.133 0 0 1 28.804 32zM16 4.265c-3.535 0-6.4 3.819-6.4 8.533s2.865 8.533 6.4 8.533c3.533 0 6.4-3.819 6.4-8.533S19.533 4.265 16 4.265z"/></symbol><symbol viewBox="0 0 15 14" id="wishlist" xmlns="http://www.w3.org/2000/svg"><defs><path id="sa" d="M578.663 1740.682l-6.188 6.192-6.189-6.192a4.5 4.5 0 0 1 0-6.364c1.703-1.703 4.422-1.74 6.189-.143 1.766-1.597 4.485-1.56 6.188.143a4.5 4.5 0 0 1 0 6.364zm-1.389-4.952a2.455 2.455 0 0 0-1.747-.724c-.623 0-1.222.231-1.686.65l-1.341 1.338-1.34-1.338a2.514 2.514 0 0 0-1.687-.65 2.484 2.484 0 0 0-2.48 2.492c0 .668.26 1.295.726 1.76l4.781 4.736 4.774-4.728c.473-.473.732-1.1.732-1.768 0-.668-.26-1.295-.732-1.768z"/></defs><use xlink:href="#sa" transform="translate(-565 -1733)"/></symbol></svg>